<mxfile host="Electron" agent="Mozilla/5.0 (Windows NT 10.0; Win64; x64) AppleWebKit/537.36 (KHTML, like Gecko) draw.io/24.7.17 Chrome/128.0.6613.36 Electron/32.0.1 Safari/537.36" version="24.7.17">
  <diagram name="Страница — 1" id="kMK4P9hotfpQ_Spd6qPo">
    <mxGraphModel dx="925" dy="539" grid="1" gridSize="10" guides="1" tooltips="1" connect="1" arrows="1" fold="1" page="1" pageScale="1" pageWidth="827" pageHeight="1169" math="0" shadow="0">
      <root>
        <mxCell id="0" />
        <mxCell id="1" parent="0" />
        <mxCell id="Zv3L8iQLcZKGsGOPM7jH-1" value="" style="rounded=0;whiteSpace=wrap;html=1;fillColor=none;" parent="1" vertex="1">
          <mxGeometry x="220" y="300" width="140" height="240" as="geometry" />
        </mxCell>
        <mxCell id="Zv3L8iQLcZKGsGOPM7jH-2" style="edgeStyle=orthogonalEdgeStyle;rounded=0;orthogonalLoop=1;jettySize=auto;html=1;entryX=1;entryY=0.5;entryDx=0;entryDy=0;endArrow=oval;endFill=1;" parent="1" source="Zv3L8iQLcZKGsGOPM7jH-4" target="Zv3L8iQLcZKGsGOPM7jH-25" edge="1">
          <mxGeometry relative="1" as="geometry" />
        </mxCell>
        <mxCell id="Zv3L8iQLcZKGsGOPM7jH-3" style="edgeStyle=orthogonalEdgeStyle;rounded=0;orthogonalLoop=1;jettySize=auto;html=1;entryX=1;entryY=0.5;entryDx=0;entryDy=0;endArrow=oval;endFill=1;exitX=1;exitY=0.5;exitDx=0;exitDy=0;" parent="1" source="Zv3L8iQLcZKGsGOPM7jH-4" target="Zv3L8iQLcZKGsGOPM7jH-39" edge="1">
          <mxGeometry relative="1" as="geometry">
            <Array as="points">
              <mxPoint x="400" y="315" />
              <mxPoint x="400" y="625" />
            </Array>
          </mxGeometry>
        </mxCell>
        <mxCell id="Zv3L8iQLcZKGsGOPM7jH-4" value="Логин (PK)" style="rounded=0;whiteSpace=wrap;html=1;fillColor=none;" parent="1" vertex="1">
          <mxGeometry x="220" y="300" width="140" height="30" as="geometry" />
        </mxCell>
        <mxCell id="Zv3L8iQLcZKGsGOPM7jH-5" value="Пользователь" style="rounded=0;whiteSpace=wrap;html=1;fillColor=none;" parent="1" vertex="1">
          <mxGeometry x="220" y="510" width="90" height="30" as="geometry" />
        </mxCell>
        <mxCell id="Zv3L8iQLcZKGsGOPM7jH-6" value="Пароль" style="rounded=0;whiteSpace=wrap;html=1;fillColor=none;strokeColor=none;" parent="1" vertex="1">
          <mxGeometry x="220" y="330" width="140" height="30" as="geometry" />
        </mxCell>
        <mxCell id="Zv3L8iQLcZKGsGOPM7jH-7" value="" style="rounded=0;whiteSpace=wrap;html=1;fillColor=none;" parent="1" vertex="1">
          <mxGeometry x="140" y="580" width="140" height="210" as="geometry" />
        </mxCell>
        <mxCell id="Zv3L8iQLcZKGsGOPM7jH-8" value="&lt;font style=&quot;font-size: 12px;&quot;&gt;&lt;span style=&quot;line-height: 106%; font-family: &amp;quot;Times New Roman&amp;quot;, serif;&quot; lang=&quot;EN-US&quot;&gt;ID &lt;/span&gt;&lt;span style=&quot;line-height: 106%; font-family: &amp;quot;Times New Roman&amp;quot;, serif;&quot;&gt;ставки&amp;nbsp;&lt;/span&gt;&amp;nbsp;(PK)&lt;/font&gt;" style="rounded=0;whiteSpace=wrap;html=1;fillColor=none;" parent="1" vertex="1">
          <mxGeometry x="140" y="580" width="140" height="30" as="geometry" />
        </mxCell>
        <mxCell id="Zv3L8iQLcZKGsGOPM7jH-9" value="Ставка" style="rounded=0;whiteSpace=wrap;html=1;fillColor=none;" parent="1" vertex="1">
          <mxGeometry x="140" y="760" width="60" height="30" as="geometry" />
        </mxCell>
        <mxCell id="Zv3L8iQLcZKGsGOPM7jH-10" value="&lt;br&gt;&lt;span style=&quot;forced-color-adjust: none; color: rgb(0, 0, 0); font-size: 12px; font-style: normal; font-variant-ligatures: normal; font-variant-caps: normal; font-weight: 400; letter-spacing: normal; orphans: 2; text-align: center; text-indent: 0px; text-transform: none; widows: 2; word-spacing: 0px; -webkit-text-stroke-width: 0px; white-space: normal; background-color: rgb(251, 251, 251); text-decoration-thickness: initial; text-decoration-style: initial; text-decoration-color: initial; line-height: 12.72px; font-family: &amp;quot;Times New Roman&amp;quot;, serif;&quot; lang=&quot;EN-US&quot;&gt;ID&lt;span&gt;&amp;nbsp;коэффициента&amp;nbsp;&lt;/span&gt;&lt;/span&gt;&lt;span style=&quot;color: rgb(0, 0, 0); font-family: Helvetica; font-size: 12px; font-style: normal; font-variant-ligatures: normal; font-variant-caps: normal; font-weight: 400; letter-spacing: normal; orphans: 2; text-align: center; text-indent: 0px; text-transform: none; widows: 2; word-spacing: 0px; -webkit-text-stroke-width: 0px; white-space: normal; background-color: rgb(251, 251, 251); text-decoration-thickness: initial; text-decoration-style: initial; text-decoration-color: initial; display: inline !important; float: none;&quot;&gt;(FK)&lt;/span&gt;&lt;div&gt;&lt;br/&gt;&lt;/div&gt;" style="rounded=0;whiteSpace=wrap;html=1;fillColor=none;strokeColor=none;" parent="1" vertex="1">
          <mxGeometry x="140" y="640" width="140" height="30" as="geometry" />
        </mxCell>
        <mxCell id="Zv3L8iQLcZKGsGOPM7jH-11" value="" style="rounded=0;whiteSpace=wrap;html=1;fillColor=none;" parent="1" vertex="1">
          <mxGeometry x="670" y="585" width="140" height="270" as="geometry" />
        </mxCell>
        <mxCell id="Zv3L8iQLcZKGsGOPM7jH-12" style="edgeStyle=orthogonalEdgeStyle;rounded=0;orthogonalLoop=1;jettySize=auto;html=1;entryX=1;entryY=0.5;entryDx=0;entryDy=0;endArrow=oval;endFill=1;" parent="1" source="Zv3L8iQLcZKGsGOPM7jH-13" target="Zv3L8iQLcZKGsGOPM7jH-20" edge="1">
          <mxGeometry relative="1" as="geometry" />
        </mxCell>
        <mxCell id="Zv3L8iQLcZKGsGOPM7jH-13" value="&lt;font style=&quot;font-size: 12px;&quot;&gt;&lt;span style=&quot;line-height: 106%; font-family: &amp;quot;Times New Roman&amp;quot;, serif;&quot; lang=&quot;EN-US&quot;&gt;ID события&lt;/span&gt;&lt;span style=&quot;line-height: 106%; font-family: &amp;quot;Times New Roman&amp;quot;, serif;&quot;&gt;&amp;nbsp;&lt;/span&gt;&amp;nbsp;(PK)&lt;/font&gt;" style="rounded=0;whiteSpace=wrap;html=1;fillColor=none;" parent="1" vertex="1">
          <mxGeometry x="670" y="585" width="140" height="30" as="geometry" />
        </mxCell>
        <mxCell id="Zv3L8iQLcZKGsGOPM7jH-14" value="Событие" style="rounded=0;whiteSpace=wrap;html=1;fillColor=none;" parent="1" vertex="1">
          <mxGeometry x="670" y="825" width="60" height="30" as="geometry" />
        </mxCell>
        <mxCell id="Zv3L8iQLcZKGsGOPM7jH-15" value="&lt;div&gt;&lt;br&gt;&lt;/div&gt;" style="rounded=0;whiteSpace=wrap;html=1;fillColor=none;strokeColor=none;" parent="1" vertex="1">
          <mxGeometry x="670" y="615" width="140" height="30" as="geometry" />
        </mxCell>
        <mxCell id="Zv3L8iQLcZKGsGOPM7jH-16" value="" style="rounded=0;whiteSpace=wrap;html=1;fillColor=none;" parent="1" vertex="1">
          <mxGeometry x="410" y="640" width="140" height="145" as="geometry" />
        </mxCell>
        <mxCell id="Zv3L8iQLcZKGsGOPM7jH-17" style="edgeStyle=orthogonalEdgeStyle;rounded=0;orthogonalLoop=1;jettySize=auto;html=1;entryX=1;entryY=0.5;entryDx=0;entryDy=0;endArrow=oval;endFill=1;" parent="1" source="Zv3L8iQLcZKGsGOPM7jH-18" target="Zv3L8iQLcZKGsGOPM7jH-10" edge="1">
          <mxGeometry relative="1" as="geometry" />
        </mxCell>
        <mxCell id="Zv3L8iQLcZKGsGOPM7jH-18" value="&lt;font style=&quot;font-size: 12px;&quot;&gt;&lt;span style=&quot;line-height: 106%; font-family: &amp;quot;Times New Roman&amp;quot;, serif;&quot; lang=&quot;EN-US&quot;&gt;ID&amp;nbsp;&lt;/span&gt;&lt;span style=&quot;line-height: 106%; font-family: &amp;quot;Times New Roman&amp;quot;, serif;&quot;&gt;коэффициента&amp;nbsp;&lt;/span&gt;&amp;nbsp;(PK)&lt;/font&gt;" style="rounded=0;whiteSpace=wrap;html=1;fillColor=none;" parent="1" vertex="1">
          <mxGeometry x="410" y="640" width="140" height="30" as="geometry" />
        </mxCell>
        <mxCell id="Zv3L8iQLcZKGsGOPM7jH-19" value="Коэффициент" style="rounded=0;whiteSpace=wrap;html=1;fillColor=none;" parent="1" vertex="1">
          <mxGeometry x="410" y="755" width="90" height="30" as="geometry" />
        </mxCell>
        <mxCell id="Zv3L8iQLcZKGsGOPM7jH-20" value="&lt;font style=&quot;font-size: 12px;&quot;&gt;&lt;span style=&quot;line-height: 106%; font-family: &amp;quot;Times New Roman&amp;quot;, serif;&quot; lang=&quot;EN-US&quot;&gt;ID события&lt;/span&gt;&lt;span style=&quot;line-height: 106%; font-family: &amp;quot;Times New Roman&amp;quot;, serif;&quot;&gt;&amp;nbsp;&lt;/span&gt;&amp;nbsp;(FK)&lt;/font&gt;" style="rounded=0;whiteSpace=wrap;html=1;fillColor=none;fontColor=default;strokeColor=none;" parent="1" vertex="1">
          <mxGeometry x="410" y="670" width="140" height="30" as="geometry" />
        </mxCell>
        <mxCell id="Zv3L8iQLcZKGsGOPM7jH-21" value="" style="rounded=0;whiteSpace=wrap;html=1;fillColor=none;" parent="1" vertex="1">
          <mxGeometry x="10" y="300" width="140" height="180" as="geometry" />
        </mxCell>
        <mxCell id="Zv3L8iQLcZKGsGOPM7jH-22" value="&lt;font style=&quot;font-size: 12px;&quot;&gt;&lt;span style=&quot;font-family: &amp;quot;Times New Roman&amp;quot;, serif;&quot; lang=&quot;EN-US&quot;&gt;ID &lt;/span&gt;&lt;span style=&quot;line-height: 106%; font-family: &amp;quot;Times New Roman&amp;quot;, serif;&quot;&gt;транзакции&amp;nbsp;&lt;/span&gt;(PK)&lt;/font&gt;" style="rounded=0;whiteSpace=wrap;html=1;fillColor=none;" parent="1" vertex="1">
          <mxGeometry x="10" y="300" width="140" height="30" as="geometry" />
        </mxCell>
        <mxCell id="Zv3L8iQLcZKGsGOPM7jH-23" value="Транзакция" style="rounded=0;whiteSpace=wrap;html=1;fillColor=none;" parent="1" vertex="1">
          <mxGeometry x="10" y="450" width="90" height="30" as="geometry" />
        </mxCell>
        <mxCell id="Zv3L8iQLcZKGsGOPM7jH-24" value="" style="rounded=0;whiteSpace=wrap;html=1;fillColor=none;strokeColor=none;" parent="1" vertex="1">
          <mxGeometry x="10" y="330" width="140" height="30" as="geometry" />
        </mxCell>
        <mxCell id="Zv3L8iQLcZKGsGOPM7jH-25" value="Логин пользователя(FK)" style="rounded=0;whiteSpace=wrap;html=1;fillColor=none;strokeColor=none;" parent="1" vertex="1">
          <mxGeometry x="10" y="330" width="140" height="30" as="geometry" />
        </mxCell>
        <mxCell id="Zv3L8iQLcZKGsGOPM7jH-27" value="" style="rounded=0;whiteSpace=wrap;html=1;fillColor=none;" parent="1" vertex="1">
          <mxGeometry x="510" y="345" width="140" height="150" as="geometry" />
        </mxCell>
        <mxCell id="Zv3L8iQLcZKGsGOPM7jH-42" style="edgeStyle=orthogonalEdgeStyle;rounded=0;orthogonalLoop=1;jettySize=auto;html=1;entryX=1;entryY=0;entryDx=0;entryDy=0;endArrow=none;endFill=0;startArrow=oval;startFill=1;exitX=1;exitY=0.5;exitDx=0;exitDy=0;" parent="1" source="Zv3L8iQLcZKGsGOPM7jH-29" target="Zv3L8iQLcZKGsGOPM7jH-41" edge="1">
          <mxGeometry relative="1" as="geometry">
            <Array as="points">
              <mxPoint x="840" y="360" />
              <mxPoint x="840" y="645" />
            </Array>
          </mxGeometry>
        </mxCell>
        <mxCell id="Zv3L8iQLcZKGsGOPM7jH-29" value="&lt;font style=&quot;font-size: 12px;&quot;&gt;&lt;span style=&quot;line-height: 106%; font-family: &amp;quot;Times New Roman&amp;quot;, serif;&quot; lang=&quot;EN-US&quot;&gt;ID команды&lt;/span&gt;&lt;span style=&quot;line-height: 106%; font-family: &amp;quot;Times New Roman&amp;quot;, serif;&quot;&gt;&amp;nbsp;&lt;/span&gt;&amp;nbsp;(PK)&lt;/font&gt;" style="rounded=0;whiteSpace=wrap;html=1;fillColor=none;" parent="1" vertex="1">
          <mxGeometry x="510" y="345" width="140" height="30" as="geometry" />
        </mxCell>
        <mxCell id="Zv3L8iQLcZKGsGOPM7jH-30" value="Команда" style="rounded=0;whiteSpace=wrap;html=1;fillColor=none;" parent="1" vertex="1">
          <mxGeometry x="510" y="465" width="60" height="30" as="geometry" />
        </mxCell>
        <mxCell id="Zv3L8iQLcZKGsGOPM7jH-39" value="&lt;font style=&quot;font-size: 12px;&quot;&gt;Логин пользователя(FK)&lt;/font&gt;" style="rounded=0;whiteSpace=wrap;html=1;fillColor=none;strokeColor=none;" parent="1" vertex="1">
          <mxGeometry x="140" y="610" width="140" height="30" as="geometry" />
        </mxCell>
        <mxCell id="Zv3L8iQLcZKGsGOPM7jH-40" value="&lt;br&gt;&lt;span style=&quot;forced-color-adjust: none; color: rgb(0, 0, 0); font-size: 12px; font-style: normal; font-variant-ligatures: normal; font-variant-caps: normal; font-weight: 400; letter-spacing: normal; orphans: 2; text-align: center; text-indent: 0px; text-transform: none; widows: 2; word-spacing: 0px; -webkit-text-stroke-width: 0px; white-space: normal; background-color: rgb(251, 251, 251); text-decoration-thickness: initial; text-decoration-style: initial; text-decoration-color: initial; line-height: 12.72px; font-family: &amp;quot;Times New Roman&amp;quot;, serif;&quot; lang=&quot;EN-US&quot;&gt;ID&lt;span&gt;&amp;nbsp;команды №1&amp;nbsp;&lt;/span&gt;&lt;/span&gt;&lt;span style=&quot;color: rgb(0, 0, 0); font-family: Helvetica; font-size: 12px; font-style: normal; font-variant-ligatures: normal; font-variant-caps: normal; font-weight: 400; letter-spacing: normal; orphans: 2; text-align: center; text-indent: 0px; text-transform: none; widows: 2; word-spacing: 0px; -webkit-text-stroke-width: 0px; white-space: normal; background-color: rgb(251, 251, 251); text-decoration-thickness: initial; text-decoration-style: initial; text-decoration-color: initial; display: inline !important; float: none;&quot;&gt;(FK)&lt;/span&gt;&lt;div&gt;&lt;br&gt;&lt;/div&gt;" style="rounded=0;whiteSpace=wrap;html=1;fillColor=none;strokeColor=none;" parent="1" vertex="1">
          <mxGeometry x="670" y="615" width="140" height="30" as="geometry" />
        </mxCell>
        <mxCell id="Zv3L8iQLcZKGsGOPM7jH-41" value="&lt;br&gt;&lt;span style=&quot;forced-color-adjust: none; color: rgb(0, 0, 0); font-size: 12px; font-style: normal; font-variant-ligatures: normal; font-variant-caps: normal; font-weight: 400; letter-spacing: normal; orphans: 2; text-align: center; text-indent: 0px; text-transform: none; widows: 2; word-spacing: 0px; -webkit-text-stroke-width: 0px; white-space: normal; background-color: rgb(251, 251, 251); text-decoration-thickness: initial; text-decoration-style: initial; text-decoration-color: initial; line-height: 12.72px; font-family: &amp;quot;Times New Roman&amp;quot;, serif;&quot; lang=&quot;EN-US&quot;&gt;ID&lt;span&gt;&amp;nbsp;команды №2&amp;nbsp;&lt;/span&gt;&lt;/span&gt;&lt;span style=&quot;color: rgb(0, 0, 0); font-family: Helvetica; font-size: 12px; font-style: normal; font-variant-ligatures: normal; font-variant-caps: normal; font-weight: 400; letter-spacing: normal; orphans: 2; text-align: center; text-indent: 0px; text-transform: none; widows: 2; word-spacing: 0px; -webkit-text-stroke-width: 0px; white-space: normal; background-color: rgb(251, 251, 251); text-decoration-thickness: initial; text-decoration-style: initial; text-decoration-color: initial; display: inline !important; float: none;&quot;&gt;(FK)&lt;/span&gt;&lt;div&gt;&lt;br&gt;&lt;/div&gt;" style="rounded=0;whiteSpace=wrap;html=1;fillColor=none;strokeColor=none;" parent="1" vertex="1">
          <mxGeometry x="670" y="645" width="140" height="30" as="geometry" />
        </mxCell>
        <mxCell id="zN8g0UmoBPYqsvCIbO3J-1" value="ФИО" style="rounded=0;whiteSpace=wrap;html=1;fillColor=none;strokeColor=none;" vertex="1" parent="1">
          <mxGeometry x="220" y="360" width="140" height="30" as="geometry" />
        </mxCell>
        <mxCell id="zN8g0UmoBPYqsvCIbO3J-2" value="Баланс счета" style="rounded=0;whiteSpace=wrap;html=1;fillColor=none;strokeColor=none;" vertex="1" parent="1">
          <mxGeometry x="220" y="480" width="140" height="30" as="geometry" />
        </mxCell>
        <mxCell id="zN8g0UmoBPYqsvCIbO3J-3" value="Телефон" style="rounded=0;whiteSpace=wrap;html=1;fillColor=none;strokeColor=none;" vertex="1" parent="1">
          <mxGeometry x="220" y="450" width="140" height="30" as="geometry" />
        </mxCell>
        <mxCell id="zN8g0UmoBPYqsvCIbO3J-4" value="Дата рождения" style="rounded=0;whiteSpace=wrap;html=1;fillColor=none;strokeColor=none;" vertex="1" parent="1">
          <mxGeometry x="220" y="390" width="140" height="30" as="geometry" />
        </mxCell>
        <mxCell id="zN8g0UmoBPYqsvCIbO3J-5" value="Почта" style="rounded=0;whiteSpace=wrap;html=1;fillColor=none;strokeColor=none;" vertex="1" parent="1">
          <mxGeometry x="220" y="420" width="140" height="30" as="geometry" />
        </mxCell>
        <mxCell id="zN8g0UmoBPYqsvCIbO3J-7" value="Дата и время&lt;span style=&quot;color: rgba(0, 0, 0, 0); font-family: monospace; font-size: 0px; text-align: start; text-wrap: nowrap;&quot;&gt;%3CmxGraphModel%3E%3Croot%3E%3CmxCell%20id%3D%220%22%2F%3E%3CmxCell%20id%3D%221%22%20parent%3D%220%22%2F%3E%3CmxCell%20id%3D%222%22%20value%3D%22%D0%9B%D0%BE%D0%B3%D0%B8%D0%BD%20%D0%BF%D0%BE%D0%BB%D1%8C%D0%B7%D0%BE%D0%B2%D0%B0%D1%82%D0%B5%D0%BB%D1%8F(FK)%22%20style%3D%22rounded%3D0%3BwhiteSpace%3Dwrap%3Bhtml%3D1%3BfillColor%3Dnone%3BstrokeColor%3Dnone%3B%22%20vertex%3D%221%22%20parent%3D%221%22%3E%3CmxGeometry%20x%3D%2213%22%20y%3D%22270%22%20width%3D%22140%22%20height%3D%2230%22%20as%3D%22geometry%22%2F%3E%3C%2FmxCell%3E%3C%2Froot%3E%3C%2FmxGraphModel%3E&lt;/span&gt;" style="rounded=0;whiteSpace=wrap;html=1;fillColor=none;strokeColor=none;" vertex="1" parent="1">
          <mxGeometry x="10" y="360" width="140" height="30" as="geometry" />
        </mxCell>
        <mxCell id="zN8g0UmoBPYqsvCIbO3J-8" value="Сумма" style="rounded=0;whiteSpace=wrap;html=1;fillColor=none;strokeColor=none;" vertex="1" parent="1">
          <mxGeometry x="10" y="390" width="140" height="30" as="geometry" />
        </mxCell>
        <mxCell id="zN8g0UmoBPYqsvCIbO3J-9" value="Тип" style="rounded=0;whiteSpace=wrap;html=1;fillColor=none;strokeColor=none;" vertex="1" parent="1">
          <mxGeometry x="10" y="420" width="140" height="30" as="geometry" />
        </mxCell>
        <mxCell id="zN8g0UmoBPYqsvCIbO3J-10" value="&lt;font face=&quot;Times New Roman, serif&quot;&gt;Дата и время&lt;/font&gt;&lt;span style=&quot;color: rgba(0, 0, 0, 0); font-family: monospace; font-size: 0px; text-align: start; text-wrap: nowrap;&quot;&gt;%3CmxGraphModel%3E%3Croot%3E%3CmxCell%20id%3D%220%22%2F%3E%3CmxCell%20id%3D%221%22%20parent%3D%220%22%2F%3E%3CmxCell%20id%3D%222%22%20value%3D%22%26lt%3Bfont%20style%3D%26quot%3Bfont-size%3A%2012px%3B%26quot%3B%26gt%3B%26lt%3Bspan%20style%3D%26quot%3Bline-height%3A%20106%25%3B%20font-family%3A%20%26amp%3Bquot%3BTimes%20New%20Roman%26amp%3Bquot%3B%2C%20serif%3B%26quot%3B%20lang%3D%26quot%3BEN-US%26quot%3B%26gt%3BID%20%D1%81%D0%BE%D0%B1%D1%8B%D1%82%D0%B8%D1%8F%26lt%3B%2Fspan%26gt%3B%26lt%3Bspan%20style%3D%26quot%3Bline-height%3A%20106%25%3B%20font-family%3A%20%26amp%3Bquot%3BTimes%20New%20Roman%26amp%3Bquot%3B%2C%20serif%3B%26quot%3B%26gt%3B%26amp%3Bnbsp%3B%26lt%3B%2Fspan%26gt%3B%26amp%3Bnbsp%3B(FK)%26lt%3B%2Ffont%26gt%3B%22%20style%3D%22rounded%3D0%3BwhiteSpace%3Dwrap%3Bhtml%3D1%3BfillColor%3Dnone%3BfontColor%3Ddefault%3BstrokeColor%3Dnone%3B%22%20vertex%3D%221%22%20parent%3D%221%22%3E%3CmxGeometry%20x%3D%22450%22%20y%3D%22705%22%20width%3D%22140%22%20height%3D%2230%22%20as%3D%22geometry%22%2F%3E%3C%2FmxCell%3E%3C%2Froot%3E%3C%2FmxGraphModel%3E&lt;/span&gt;" style="rounded=0;whiteSpace=wrap;html=1;fillColor=none;fontColor=default;strokeColor=none;" vertex="1" parent="1">
          <mxGeometry x="140" y="670" width="140" height="30" as="geometry" />
        </mxCell>
        <mxCell id="zN8g0UmoBPYqsvCIbO3J-11" value="&lt;font face=&quot;Times New Roman, serif&quot;&gt;Сумма&lt;/font&gt;" style="rounded=0;whiteSpace=wrap;html=1;fillColor=none;fontColor=default;strokeColor=none;" vertex="1" parent="1">
          <mxGeometry x="140" y="700" width="140" height="30" as="geometry" />
        </mxCell>
        <mxCell id="zN8g0UmoBPYqsvCIbO3J-12" value="&lt;font face=&quot;Times New Roman, serif&quot;&gt;Тип&lt;/font&gt;" style="rounded=0;whiteSpace=wrap;html=1;fillColor=none;fontColor=default;strokeColor=none;" vertex="1" parent="1">
          <mxGeometry x="140" y="730" width="140" height="30" as="geometry" />
        </mxCell>
        <mxCell id="zN8g0UmoBPYqsvCIbO3J-14" value="&lt;font face=&quot;Times New Roman, serif&quot;&gt;Тип&lt;/font&gt;" style="rounded=0;whiteSpace=wrap;html=1;fillColor=none;fontColor=default;strokeColor=none;" vertex="1" parent="1">
          <mxGeometry x="410" y="697.5" width="140" height="30" as="geometry" />
        </mxCell>
        <mxCell id="zN8g0UmoBPYqsvCIbO3J-15" value="&lt;font face=&quot;Times New Roman, serif&quot;&gt;Значение коэффициента&lt;/font&gt;" style="rounded=0;whiteSpace=wrap;html=1;fillColor=none;fontColor=default;strokeColor=none;" vertex="1" parent="1">
          <mxGeometry x="410" y="725" width="140" height="30" as="geometry" />
        </mxCell>
        <mxCell id="zN8g0UmoBPYqsvCIbO3J-16" value="&lt;div&gt;Название&lt;/div&gt;" style="rounded=0;whiteSpace=wrap;html=1;fillColor=none;strokeColor=none;" vertex="1" parent="1">
          <mxGeometry x="670" y="675" width="140" height="30" as="geometry" />
        </mxCell>
        <mxCell id="zN8g0UmoBPYqsvCIbO3J-17" value="&lt;div&gt;Дата и время&lt;/div&gt;" style="rounded=0;whiteSpace=wrap;html=1;fillColor=none;strokeColor=none;" vertex="1" parent="1">
          <mxGeometry x="670" y="705" width="140" height="30" as="geometry" />
        </mxCell>
        <mxCell id="zN8g0UmoBPYqsvCIbO3J-18" value="&lt;div&gt;Вид спорта&lt;/div&gt;" style="rounded=0;whiteSpace=wrap;html=1;fillColor=none;strokeColor=none;" vertex="1" parent="1">
          <mxGeometry x="670" y="735" width="140" height="30" as="geometry" />
        </mxCell>
        <mxCell id="zN8g0UmoBPYqsvCIbO3J-19" value="&lt;div&gt;Результат&lt;/div&gt;" style="rounded=0;whiteSpace=wrap;html=1;fillColor=none;strokeColor=none;" vertex="1" parent="1">
          <mxGeometry x="670" y="765" width="140" height="30" as="geometry" />
        </mxCell>
        <mxCell id="zN8g0UmoBPYqsvCIbO3J-20" value="&lt;div&gt;Статус&lt;/div&gt;" style="rounded=0;whiteSpace=wrap;html=1;fillColor=none;strokeColor=none;" vertex="1" parent="1">
          <mxGeometry x="670" y="795" width="140" height="30" as="geometry" />
        </mxCell>
        <mxCell id="zN8g0UmoBPYqsvCIbO3J-21" value="&lt;div&gt;Название&lt;/div&gt;" style="rounded=0;whiteSpace=wrap;html=1;fillColor=none;strokeColor=none;" vertex="1" parent="1">
          <mxGeometry x="510" y="375" width="140" height="30" as="geometry" />
        </mxCell>
        <mxCell id="zN8g0UmoBPYqsvCIbO3J-22" value="&lt;div&gt;Страна&lt;/div&gt;" style="rounded=0;whiteSpace=wrap;html=1;fillColor=none;strokeColor=none;" vertex="1" parent="1">
          <mxGeometry x="510" y="405" width="140" height="30" as="geometry" />
        </mxCell>
        <mxCell id="zN8g0UmoBPYqsvCIbO3J-23" value="&lt;div&gt;Вид спорта&lt;/div&gt;" style="rounded=0;whiteSpace=wrap;html=1;fillColor=none;strokeColor=none;" vertex="1" parent="1">
          <mxGeometry x="510" y="435" width="140" height="30" as="geometry" />
        </mxCell>
      </root>
    </mxGraphModel>
  </diagram>
</mxfile>
